<?xml version="1.0" encoding="utf-8"?>
<!-- Generator: Adobe Illustrator 21.0.0, SVG Export Plug-In . SVG Version: 6.00 Build 0)  -->
<svg version="1.1" id="Layer_1" xmlns="http://www.w3.org/2000/svg" xmlns:xlink="http://www.w3.org/1999/xlink" x="0px" y="0px"
	 viewBox="0 0 612 792" style="enable-background:new 0 0 612 792;" xml:space="preserve">
<style type="text/css">
	.st0{display:none;fill:#00204A;}
	.st1{fill:#2BBFE2;}
</style>
<rect class="st0" width="612" height="792"/>
<g>
	<path class="st1" d="M439.5,489.2c3.1,0,6,0.1,8.9,0c7.2-0.4,12.6,5.8,12.6,12.5c0,10.6,0,21.2,0,31.8c0,0.6,0,1.2,0,2
		c1.1,0,2,0,3,0c4.6,0,9.2,0,13.8,0c0.9,0,1.7-0.5,2.6-0.6c0.5-0.1,1-0.1,1.5,0c5.8,1.1,10.1,6.8,9.7,12.9
		c-0.4,6.1-5.4,11.1-11.4,11.3c-0.5,0-0.9,0-1.4,0c-107.8,0-215.7,0-323.5,0c-6.4,0-11-3.5-12.4-9.5c-1.8-7.4,4-14.7,11.6-14.8
		c6.1,0,12.1,0,18.2,0c0.1,0,0.2,0,0.6-0.1c0-0.5,0-1.1,0-1.7c0-10.3,0-20.6,0-30.9c0-3.7,1.2-6.9,3.8-9.5c2.2-2.2,4.9-3.3,8-3.3
		c3.2,0,6.3,0,9.7,0c0-0.8,0-1.4,0-2.1c0-27.1-0.5-54.1,0.1-81.2c1-43.4,18.5-78.9,53.4-105.2c17.6-13.2,37.6-20.7,59.5-22.3
		c34.3-2.6,64.2,8.3,89.4,31.4c22.3,20.4,35.4,45.9,40.6,75.6c1.4,7.7,1.9,15.6,1.9,23.4c0,26.1,0,52.3,0,78.4
		C439.5,487.8,439.5,488.4,439.5,489.2z M429.4,489c0-0.6,0-1,0-1.5c0-29.3,0-58.5,0-87.8c0-10.8-1.8-21.4-5-31.7
		c-13.3-41.9-51.2-73.2-97.1-77.4c-11.2-1-22.3-0.5-33.3,1.8c-31.2,6.7-55.7,23.3-72.8,50.2c-10.5,16.4-16.2,34.4-16.4,53.9
		c-0.4,30.4-0.1,60.8-0.1,91.1c0,0.4,0.1,0.8,0.1,1.3C279.6,489,354.4,489,429.4,489z M180.6,541.1c-0.8,0-1.3,0-1.9,0
		c-8,0-16,0-24,0c-2.5,0-4.4,1.4-5.2,3.7c-1.1,3.4,0.8,7.8,5.7,7.8c13.4-0.1,26.8,0,40.2,0c86,0,172,0,257.9,0c8,0,16,0,24,0
		c0.8,0,1.5,0,2.3-0.1c1.8-0.3,3.4-1.8,3.6-3.3c0.4-4.2-2.8-6.6-5.6-6.5c-7.3,0.2-14.6,0.1-21.9,0.1c-0.5,0-1.1,0-1.7,0
		c0-0.9,0-1.5,0-2.1c0-12.2,0-24.5,0-36.7c0-1.9-0.4-3.6-1.7-5.1c-1.6-1.9-3.6-2.4-6-2.4c-71.1,0-142.2,0-213.3,0
		c-15.2,0-30.5,0-45.7,0c-3.1,0-5.5,1.7-6.5,4.6c-0.3,1-0.4,2.1-0.4,3.2c0,11.6,0,23.2,0,34.9C180.6,539.7,180.6,540.3,180.6,541.1z
		"/>
	<path class="st1" d="M173.7,276.4c2-17.9,4-35.8,6-53.8c0.1,0,0.3,0,0.4-0.1c11.6,26.3,23.2,52.5,34.9,78.8c-0.1,0-0.2,0.1-0.3,0.1
		c-9.5-15.5-18.9-30.9-28.6-46.8c-2.5,11.9-4.9,23.4-7.3,35.2c-33.5-36.6-66.9-73.1-100.4-109.7c4.5-4.9,9-9.7,13.6-14.7
		c27.2,37.1,54.3,74.1,81.3,111C173.5,276.4,173.6,276.4,173.7,276.4z M156.1,259.5c0.1-0.1,0.2-0.2,0.3-0.2
		c-21.7-29.3-43.4-58.6-65.2-88c-2.8,3.1-5.4,6.1-8.1,9.2C107.5,206.9,131.8,233.2,156.1,259.5z"/>
	<path class="st1" d="M458.9,277.9c26-37.1,52-74.1,78.2-111.4c4.6,4.9,9,9.7,13.6,14.7c-0.3,0.4-0.6,0.8-0.8,1.1
		c-25.2,28.4-50.4,56.8-75.6,85.2c-4.6,5.2-9.3,10.4-13.9,15.7c-1.9,2.2-3.6,4.5-5.4,6.7c-0.2,0.2-0.3,0.5-0.4,0.8
		c-0.1-0.1-0.3-0.2-0.4-0.2c-2.7-11.3-5.3-22.5-8.1-34.3c-9.1,15.6-18.1,30.9-27,46.1c-0.1,0-0.2-0.1-0.2-0.1
		c11.1-25.8,22.1-51.5,33.2-77.3c0.1,0,0.2,0,0.4,0.1c2.1,17.6,4.2,35.3,6.3,52.9C458.7,277.9,458.8,277.9,458.9,277.9z
		 M537.7,172.7c-20.6,29-41.3,58.3-62.1,87.5c0.1,0.1,0.2,0.1,0.3,0.2c23.4-26.5,46.8-53.1,70.3-79.6
		C543.3,178.1,540.5,175.4,537.7,172.7z"/>
	<path class="st1" d="M284.3,590.4c0,2.5,0.2,4.7,0,6.9c-0.6,4.6,0.1,8.9,2.4,13c1.6,3,3,6.1,4.6,9.5c0.4-0.9,0.6-1.4,0.8-1.9
		c1.4-4.2,2.9-8.5,4.3-12.7c0.3-0.8,0.3-1.8,0.3-2.7c0-3.9,0-7.8,0-11.9c2.1,0,4.3,0,6.7,0c0,0.5,0.1,1,0.1,1.5c0,3.1,0,6.2-0.2,9.3
		c-0.1,2.3,0.3,4.4,1.1,6.6c1.4,3.7,2.8,7.4,4.2,11.3c0.3-0.4,0.5-0.7,0.7-0.9c2-4.2,4-8.4,5.9-12.6c0.5-1.1,0.7-2.5,0.6-3.7
		c-0.1-3.8-0.3-7.6-0.5-11.7c2.2,0,4.3,0,6.5,0c0.2,0,0.5,0.6,0.5,0.9c0.1,4,0.2,8,0.3,12.1c0,0.5-0.2,1.1-0.5,1.6
		c-3.3,7-6.6,14.1-9.9,21.1c-0.4,1-1,1.3-2.1,1.3c-4.2,0-4.2,0-5.8-3.9c-1.2-3.1-2.4-6.3-3.6-9.4c-0.2-0.5-0.4-1-0.7-1.8
		c-1.8,4.5-3.5,8.7-5.1,13c-0.6,1.6-1.4,2.1-3.2,2.2c-2.6,0.2-3.8-0.7-4.9-3.1c-2.7-6.3-5.8-12.4-8.7-18.7c-0.5-1-0.7-2.2-0.7-3.4
		c0-3.6,0.1-7.1,0.3-10.7c0-0.4,0.5-1.2,0.9-1.2C280.5,590.4,282.4,590.4,284.3,590.4z"/>
	<path class="st1" d="M319.2,200.1c-0.4-2.4-0.8-4.4-1.1-6.5c0-0.3,0.3-0.9,0.6-1.1c7.3-4.7,15.2-6.5,23.6-3.6
		c7.7,2.7,10.6,10.3,6.9,17.7c-2.6,5.1-6.4,9.2-10.3,13.2c-1.8,1.9-3.6,3.8-5.6,5.9c0.8,0,1.3,0.1,1.8,0.1c5.3-0.3,10.7-0.6,16-0.9
		c2.1-0.1,2.2-0.1,2.2,2c0,1.8-0.2,3.6-0.2,5.3c0,1.1-0.4,1.5-1.6,1.5c-9.9-0.1-19.8-0.3-29.6-0.3c-1.5,0-2.3-0.4-2.4-2
		c0-0.8-0.3-1.6-0.5-2.4c-0.4-2.1-0.4-2.3,1.8-2.5c2.7-0.3,4.8-1.5,6.6-3.5c3.4-3.9,6.9-7.8,10.2-11.8c1.2-1.4,2-3.2,2.9-4.8
		c3.4-6.9-2.2-11.3-7.1-11.5c-4-0.2-7.6,1.1-11,3.2C321.4,198.8,320.4,199.4,319.2,200.1z"/>
	<path class="st1" d="M456.4,601.3c0,2.1,0,4.1,0,6.2c0.1,6.1,0.1,12.2,0.2,18.3c0,1.2-0.3,1.6-1.6,1.5c-1.3-0.1-2.5-0.1-3.8,0
		c-1.1,0.1-1.5-0.2-1.4-1.4c0.2-3.3,0.3-6.5,0.3-9.8c0-7.9-0.1-15.9-0.3-23.8c0-1.5,0.2-2.2,1.8-2c0.6,0.1,1.3,0.1,1.8-0.1
		c2.1-0.7,3.2,0.3,4.4,1.9c5.6,7.6,11.3,15.2,17,22.8c0.4,0.5,0.8,1,1.2,1.5c0.1,0,0.3,0,0.4-0.1c0-1.7,0-3.5,0-5.2
		c-0.1-6.4-0.3-12.7-0.5-19.1c-0.1-1.5,0.4-1.9,1.8-1.7c1.3,0.1,2.5,0.1,3.8,0c1.1-0.1,1.4,0.3,1.4,1.4c-0.2,4.8-0.4,9.6-0.4,14.4
		c0,6.5,0,12.9,0.1,19.4c0,1.5-0.4,2.1-1.9,1.8c-0.3-0.1-0.7-0.1-1.1-0.1c-2.6,0.7-4-0.8-5.4-2.8c-5.5-7.5-11.2-14.9-16.8-22.3
		c-0.3-0.4-0.6-0.7-0.9-1C456.7,601.3,456.5,601.3,456.4,601.3z"/>
	<path class="st1" d="M242,608.9c0,8.5-5,16-12.3,18.5c-10.7,3.6-22-3.6-23.5-15.1c-1-7.6,1.1-14,7-19c5.9-5,14.9-5.2,21-0.5
		C239.4,596.9,241.9,602.3,242,608.9z M235.6,608.9c0-4-1.4-7.5-4.2-10.3c-4.3-4.2-11.1-4-15.2,0.5c-5,5.4-5.1,13.8-0.3,19.4
		c4.2,4.9,11.3,5.1,15.8,0.4C234.3,616.1,235.6,612.7,235.6,608.9z"/>
	<path class="st1" d="M488.8,592.1c0-1.3,0.4-1.8,1.7-1.7c5.1,0.2,10.2,0,15.3,0.4c10.1,0.8,14.3,7.8,15.3,15.5
		c0.8,6.1-0.7,11.7-5,16.4c-2.9,3.2-6.5,4.8-10.8,4.8c-5,0-10,0-15,0c-1.3,0-1.6-0.4-1.5-1.6C489,620.2,488.9,597.7,488.8,592.1z
		 M495.7,608.9C495.7,608.9,495.7,608.9,495.7,608.9c0,3.6,0,7.2,0,10.8c0,1.9,0.3,2.3,2.3,2.4c2.3,0.1,4.6,0.1,6.9,0
		c3.4-0.2,5.9-1.9,7.6-4.7c2.9-4.7,3.2-9.7,1.2-14.8c-1.2-3-3.4-5.1-6.4-6.1c-3.2-1.1-6.6-0.9-10-0.7c-1.1,0.1-1.6,0.7-1.5,1.8
		C495.7,601.4,495.7,605.2,495.7,608.9z"/>
	<path class="st1" d="M168.8,608.7c-0.2-5.3-0.3-11-0.6-16.6c-0.1-1.4,0.4-1.8,1.7-1.6c1.4,0.1,2.7,0.1,4.1,0c1-0.1,1.4,0.3,1.3,1.3
		c-0.2,4-0.2,7.9-0.4,11.9c-0.1,1.5,0.5,2,1.9,2c5.3,0,10.6,0,15.9,0c1.5,0,2-0.6,2-2.1c-0.2-3.9-0.2-7.7-0.3-11.6
		c0-1.1,0.3-1.6,1.5-1.5c1.4,0.1,2.8,0.1,4.1,0c1.2-0.1,1.6,0.3,1.5,1.5c-0.2,5.1-0.5,10.2-0.5,15.3c0,6.1,0.3,12.2,0.5,18.3
		c0.1,1.9,0,1.9-2,1.8c-1.3,0-2.5-0.1-3.8,0c-1.1,0.1-1.5-0.3-1.5-1.4c0.1-4.2,0.2-8.4,0.3-12.5c0-2-0.1-2.1-2-2.1
		c-5.1,0-10.3,0-15.4,0c-1.5,0-2,0.6-2,2.1c0.2,4.1,0.1,8.2,0.3,12.2c0.1,1.5-0.5,2-1.9,1.8c-1.3-0.1-2.5-0.1-3.8,0
		c-1.2,0.1-1.5-0.3-1.5-1.5c0.2-5.3,0.4-10.6,0.6-15.9C168.8,609.7,168.8,609.4,168.8,608.7z"/>
	<path class="st1" d="M483.4,336.7c-1.4,9.7-2.8,19.5-4.2,29.2c0.1,0.1,0.2,0.1,0.3,0.2c19.8-16.1,39.5-32.2,59.4-48.4
		c1.8,3.3,3.5,6.5,5.3,9.9c-23.2,15-46.3,30-69.7,45.2c0.3-6.8,0.7-13.2,1-20c-7.1,6.9-14,13.5-20.8,20c-0.1-0.1-0.2-0.2-0.3-0.3
		c9.5-12,19-23.9,28.5-35.9C483.1,336.6,483.2,336.6,483.4,336.7z M492.5,358c0.1,0.1,0.2,0.2,0.2,0.3
		c16.3-10.5,32.6-20.9,48.9-31.4c-1-2-2.1-4-3.1-6.1C523.1,333.4,507.8,345.7,492.5,358z"/>
	<path class="st1" d="M175.6,372.7c-6.8-6.6-13.7-13.2-20.8-20.1c0.3,6.8,0.7,13.2,1,20c-23.4-15.2-46.5-30.1-69.7-45.2
		c1.8-3.3,3.5-6.5,5.3-9.9c19.9,16.2,39.6,32.3,59.4,48.4c0.1,0,0.2-0.1,0.4-0.1c-1.4-9.7-2.8-19.5-4.2-29.2
		c0.1-0.1,0.3-0.1,0.4-0.2c9.5,12,19,23.9,28.5,35.9C175.8,372.5,175.7,372.6,175.6,372.7z M137.6,358.4c0.1-0.1,0.2-0.2,0.2-0.4
		c-15.3-12.3-30.6-24.7-46-37.2c-1.1,2.1-2.1,4.1-3.1,6.1C105,337.5,121.3,347.9,137.6,358.4z"/>
	<path class="st1" d="M247.1,608.9c-0.2-5.6-0.3-11.2-0.6-16.8c-0.1-1.4,0.4-1.8,1.7-1.7c1.3,0.1,2.6,0.1,4,0
		c1.1-0.1,1.4,0.3,1.4,1.4c-0.1,4.1-0.2,8.1-0.3,12.2c0,2.3,0.1,2.4,2.4,2.3c4.3-0.1,7.5-1.8,9.1-5.9c1.2-2.8,2.3-5.7,3.3-8.5
		c0.4-1.1,1-1.6,2.1-1.5c1.2,0.1,2.3,0,3.5,0.1c0.9,0,1.4,0.5,1.1,1.5c-1.6,5.9-3.8,11.4-8.4,15.7c-1,0.9-1,1.7-0.5,2.9
		c2.2,5,5.1,9.5,8.5,13.7c0.4,0.5,0.8,1,1,1.5c0.5,1,0,1.7-1.1,1.7c-1.7,0-3.4,0.1-5-0.1c-0.7-0.1-1.5-0.7-1.9-1.3
		c-2.3-3.9-4.6-7.8-6.7-11.8c-1.4-2.6-4.4-3.8-6.9-2.4c-0.4,0.2-0.6,1-0.6,1.5c0.1,4.1,0.1,8.3,0.3,12.4c0.1,1.4-0.4,1.8-1.7,1.7
		c-1.3-0.1-2.6-0.1-4,0c-1.1,0.1-1.5-0.3-1.5-1.4c0.2-5,0.4-10.1,0.6-15.1C247.1,610.2,247.1,609.5,247.1,608.9
		C247.1,608.9,247.1,608.9,247.1,608.9z"/>
	<path class="st1" d="M356.6,609.3c-0.2-6-0.4-11.6-0.6-17.2c-0.1-1.3,0.3-1.8,1.7-1.7c1.3,0.1,2.5,0.1,3.8,0
		c1.2-0.1,1.6,0.2,1.6,1.5c-0.2,4.1-0.2,8.1-0.3,12.2c0,2.1,0.1,2.2,2.3,2.2c4.4-0.1,7.7-1.8,9.4-6c1.1-2.8,2.2-5.6,3.3-8.4
		c0.4-1.1,0.9-1.6,2.1-1.5c1.2,0.1,2.4,0,3.7,0.1c0.9,0,1.2,0.6,1,1.5c-1.6,5.9-3.7,11.4-8.4,15.7c-1,0.9-1.1,1.7-0.5,2.9
		c2.1,4.5,4.5,8.8,7.7,12.6c0.6,0.7,1.2,1.4,1.6,2.2c0.3,0.5,0.3,1.2,0.2,1.7c-0.1,0.3-0.8,0.4-1.3,0.4c-1.4,0.1-2.8-0.1-4.1,0
		c-1.2,0.1-2-0.3-2.5-1.3c-2.2-3.9-4.5-7.8-6.7-11.8c-1.4-2.6-4.3-3.8-6.9-2.5c-0.4,0.2-0.6,1-0.6,1.5c0.1,4.1,0.1,8.3,0.3,12.4
		c0.1,1.3-0.3,1.9-1.7,1.7c-1.2-0.1-2.4-0.1-3.7,0c-1.4,0.1-1.9-0.2-1.8-1.7C356.3,620.1,356.4,614.5,356.6,609.3z"/>
	<path class="st1" d="M389,608.9c-0.2-5.6-0.3-11.2-0.6-16.8c-0.1-1.5,0.4-1.8,1.8-1.7c1.3,0.1,2.6,0.1,4,0c1-0.1,1.3,0.3,1.3,1.3
		c-0.1,4.1-0.2,8.2-0.3,12.4c0,2.1,0.1,2.2,2.2,2.2c4.4-0.1,7.7-1.8,9.4-6c1.1-2.8,2.3-5.6,3.3-8.4c0.4-1.2,1-1.6,2.2-1.6
		c1.1,0.1,2.2,0,3.4,0.1c1,0,1.4,0.5,1.2,1.6c-1.6,5.9-3.8,11.5-8.5,15.8c-0.8,0.7-0.9,1.4-0.5,2.4c2.2,5.1,5.1,9.7,8.6,14
		c0.4,0.5,0.8,1,1,1.5c0.5,1,0.1,1.7-1,1.8c-1.7,0-3.5,0.1-5.2,0c-0.6-0.1-1.4-0.6-1.7-1.2c-2.3-3.9-4.6-7.8-6.7-11.8
		c-1.4-2.6-4.2-3.8-6.9-2.5c-0.4,0.2-0.7,1-0.7,1.5c0,4.1,0.1,8.3,0.3,12.4c0.1,1.4-0.4,1.9-1.8,1.7c-1.3-0.1-2.6-0.1-4,0
		c-1.1,0.1-1.4-0.3-1.4-1.4c0.2-4.7,0.4-9.4,0.5-14C389,611,388.9,609.9,389,608.9C389,608.9,389,608.9,389,608.9z"/>
	<path class="st1" d="M350.6,605.2c-0.1,1.9-0.2,3.6-0.5,5.3c-0.1,0.3-1,0.7-1.5,0.7c-4.1,0-8.2-0.2-12.4-0.2
		c-2.5,0-2.6,0.2-2.6,2.6c0,1.8,0,3.7,0,5.5c0.1,2.4,0.7,3.2,3.1,3.1c4.2-0.1,8.3-0.2,12.5-0.5c2.9-0.2,2.9-0.2,2.3,2.5
		c-0.3,1.2-0.2,2.8-1,3.3c-0.7,0.5-2.2-0.1-3.4-0.1c-6.2,0-12.3,0-18.5,0c-1.9,0-2,0-1.9-2c0.6-11.2,0.8-22.4,0-33.6
		c-0.1-1.2,0.3-1.5,1.5-1.5c6.8,0,13.7,0,20.5,0c1.3,0,1.9,0.5,1.9,1.7c0.1,1,0.2,1.9,0.3,2.9c0.1,0.9-0.3,1.3-1.2,1.2
		c-3-0.2-6-0.3-9-0.5c-1.6-0.1-3.2-0.2-4.7-0.1c-2,0.1-2.5,0.6-2.5,2.5c-0.1,1.9,0,3.9,0,5.8c0,1.4,0.6,1.8,1.9,1.8
		c4.5-0.2,9.1-0.4,13.6-0.5C349.5,605.1,349.9,605.2,350.6,605.2z"/>
	<path class="st1" d="M445.1,596.3c-3.7-0.2-7-0.4-10.3-0.5c-1.7-0.1-3.4-0.1-5-0.1c-1.5,0-2.3,0.8-2.2,2.3c0,2,0,4,0,6
		c0,1.3,0.5,1.9,1.8,1.8c4.6-0.2,9.2-0.4,13.7-0.6c0.4,0,0.7,0,1.3,0c-0.2,1.9-0.2,3.8-0.5,5.6c0,0.2-0.9,0.5-1.4,0.5
		c-4-0.1-7.9-0.2-11.9-0.3c-0.6,0-1.1,0-1.7,0.1c-1,0.1-1.4,0.6-1.4,1.6c0,2.2,0,4.4,0,6.6c0.1,2.3,0.7,3,3.1,3
		c4.2-0.1,8.3-0.2,12.5-0.5c2.9-0.2,2.9-0.2,2.3,2.6c0,0.1-0.1,0.2-0.1,0.3c-0.6,3.2-0.6,3-3.9,2.9c-6.1-0.2-12.2-0.1-18.3-0.1
		c-2.4,0-2.5,0-2.4-2.4c0.6-11,0.8-22.1,0-33.1c-0.1-1.1,0.2-1.5,1.4-1.5c6.8,0.1,13.7,0.1,20.5,0c1.3,0,1.9,0.4,2,1.7
		C444.8,593.4,444.9,594.7,445.1,596.3z"/>
	<path class="st1" d="M161.9,600.7c-0.8-0.7-1.4-1.3-2-1.8c-6.5-6.1-15.4-3.6-17.7,5.1c-1,3.6-0.9,7.3,0.4,10.8c2.6,7,10,9.3,16,4.9
		c1.1-0.8,2.2-1.8,3.4-2.8c1,1.3,2,2.6,2.8,3.9c0.2,0.4,0.1,1.3-0.3,1.7c-6.2,7.6-18.5,7.8-24.9,0.4c-6.9-8-6.4-21.9,1.2-29.2
		c6.2-6,17.4-5.7,23.1,0.4c0.9,1,1.1,1.8,0.3,2.9C163.5,598.2,162.8,599.4,161.9,600.7z"/>
	<path class="st1" d="M282.6,199.4c-1.8,0.5-3.2,0.8-4.6,1.2c-2.1,0.5-2,0.3-2.2-1.7c-0.3-3,0.6-4.8,3.4-6.2c1.9-1,3.3-3,4.9-4.5
		c0.6-0.6,1.2-0.9,2.1-0.6c1.6,0.4,3.2,0.7,4.8,0.9c0.8,0.1,1.1,0.6,1,1.4c-1.4,13.6-0.7,27.2-0.8,40.8c0,2.4,0,2.5-2.5,2.5
		c-1.5,0-3.1,0.1-4.6,0.1c-2.2,0-2.2,0-2.2-2.2c0.2-8.2,0.4-16.4,0.6-24.6C282.6,204.2,282.6,202,282.6,199.4z"/>
	<path class="st1" d="M303.7,199.4c-1.8,0.5-3.2,0.8-4.6,1.2c-2.1,0.5-2,0.3-2.2-1.7c-0.3-3,0.6-4.8,3.4-6.2c1.9-1,3.3-3,4.9-4.5
		c0.6-0.6,1.2-0.9,2.1-0.6c1.6,0.4,3.2,0.7,4.8,0.9c0.8,0.1,1.1,0.6,1,1.4c-1.4,13.6-0.7,27.2-0.8,40.8c0,2.4,0,2.5-2.5,2.5
		c-1.5,0-3.1,0.1-4.6,0.1c-2.2,0-2.2,0-2.2-2.2c0.2-8.2,0.4-16.4,0.6-24.6C303.7,204.2,303.7,202,303.7,199.4z"/>
	<path class="st1" d="M169.7,446.1c-7.7-1.8-15.4-3.6-23.5-5.5c3.2,4.9,6.2,9.3,9.4,14.1c-23.5-0.9-46.8-1.7-70.1-2.6
		c-0.1-3.2-0.3-6.3-0.4-9.5c21.5,3.1,42.7,6.3,64.5,9.4c-5.5-6.8-10.7-13.2-15.9-19.6c0.1-0.1,0.2-0.2,0.2-0.3
		c12,4.5,24,9.1,36.1,13.6C169.8,445.9,169.7,446,169.7,446.1z M135.9,452.3c0-0.1,0-0.3,0-0.4c-16.4-2.3-32.8-4.6-49.3-7
		c0.2,2.1,0.3,3.9,0.4,5.8C103.5,451.2,119.7,451.7,135.9,452.3z"/>
	<path class="st1" d="M501.7,432.5c-5.2,6.4-10.4,12.8-15.9,19.6c21.7-3.2,43-6.3,64.5-9.4c-0.1,3.1-0.3,6.2-0.4,9.5
		c-23.3,0.9-46.5,1.7-70.1,2.6c3.2-4.8,6.1-9.2,9.4-14.1c-8.2,1.9-15.9,3.7-23.6,5.5c0-0.1-0.1-0.2-0.1-0.3c12-4.5,24-9.1,36-13.6
		C501.5,432.3,501.6,432.4,501.7,432.5z M548.6,444.9c-16.5,2.3-32.9,4.6-49.2,7c0,0.1,0,0.3,0,0.4c16.2-0.5,32.5-1,48.6-1.6
		c0.1-0.3,0.2-0.5,0.2-0.6C548.3,448.5,548.5,446.9,548.6,444.9z"/>
	<path class="st1" d="M132.2,592.9c-0.9,1.7-1.7,3.4-2.6,5.1c-1.9-0.6-3.6-1.2-5.5-1.6c-0.9-0.2-1.9-0.2-2.9-0.1
		c-1.7,0.2-3,1.1-3.4,2.8c-0.4,1.8-0.1,3.4,1.5,4.5c1.7,1.1,3.4,2,5.1,3c1.2,0.7,2.6,1.3,3.6,2.3c3.6,3.4,3.7,10,0.2,14.1
		c-2.9,3.4-6.8,4.7-11.1,5.1c-0.3,0-0.6,0-0.9,0c-3.4,0-3.3,0-4-3.2c-0.2-1.1-0.5-2.2-0.8-3.6c1.1,0.1,1.9,0.2,2.6,0.2
		c2-0.1,4-0.1,5.9-0.4c2-0.4,3.5-1.6,3.9-3.8c0.4-2.2-0.6-3.9-2.4-5c-1.8-1.1-3.5-2.3-5.4-3.1c-6.6-3.1-6.2-13.8,0.1-17.4
		C120.4,589.3,128.2,589.7,132.2,592.9z"/>
	<path class="st1" d="M304.2,317.8c1,0.1,2.1,0,3,0.3c1.8,0.6,2.9,2.5,2.6,4.3c-0.3,1.9-2,3.4-3.9,3.4c-6.1,0-12.2,0.9-18,2.8
		c-12.3,3.8-22.5,10.7-30.8,20.5c-8.8,10.4-14,22.4-16,35.9c-0.5,3.1-0.5,6.2-0.7,9.3c0,0.4,0,0.7,0,1.1c-0.1,2.4-1.9,4.4-3.8,4.4
		c-2,0-3.8-2.1-3.7-4.5c0.1-6.9,0.9-13.8,2.7-20.5c6.1-21.9,18.9-38.7,39.1-49.3C283.9,320.6,293.8,318.3,304.2,317.8z"/>
</g>
</svg>
